<svg xmlns="http://www.w3.org/2000/svg" xmlns:xlink="http://www.w3.org/1999/xlink" width="191" height="225" viewBox="0 0 191 225">
  <defs>
    <clipPath id="clip-Artboard_8">
      <rect width="191" height="225"/>
    </clipPath>
  </defs>
  <g id="Artboard_8" data-name="Artboard – 8" clip-path="url(#clip-Artboard_8)">
    <rect width="191" height="225" fill="#fff"/>
    <g id="Group_2322" data-name="Group 2322" transform="translate(-55 -37)">
      <path id="Path_874" data-name="Path 874" d="M-9670.232,2854.876s-7.861-11.1-33.293-2.312c5.549,47.627,33.293,31.906,33.293,31.906s-11.329,3.237-18.034-4.162-9.248-24.507-8.785-25.432C-9681.33,2847.94-9670.232,2854.876-9670.232,2854.876Z" transform="translate(9804 -2741)" fill="#fc0"/>
      <path id="Path_875" data-name="Path 875" d="M-9703.525,2854.876s7.861-11.1,33.293-2.312c-5.549,47.627-33.293,31.906-33.293,31.906s11.329,3.237,18.034-4.162,9.248-24.507,8.785-25.432C-9692.428,2847.94-9703.525,2854.876-9703.525,2854.876Z" transform="translate(9870 -2741)" fill="#fc0"/>
      <path id="Path_876" data-name="Path 876" d="M-9675.781,2847.015a29.089,29.089,0,0,1,21.732-10.173,27.579,27.579,0,0,1,21.271,10.173s-10.636-5.086-21.271-5.086S-9675.781,2847.015-9675.781,2847.015Z" transform="translate(9803 -2741)" fill="#fc0"/>
      <path id="Path_877" data-name="Path 877" d="M-9675.781,2847.015a29.089,29.089,0,0,1,21.732-10.173,27.579,27.579,0,0,1,21.271,10.173s-10.636-5.086-21.271-5.086S-9675.781,2847.015-9675.781,2847.015Z" transform="translate(9803 -2751)" fill="#ff6709"/>
      <path id="Path_878" data-name="Path 878" d="M-9658.673,2853.951s2.89,10.173,5.549,10.173,5.087-10.173,5.087-10.173,4.161,17.109-5.087,17.109S-9658.673,2853.951-9658.673,2853.951Z" transform="translate(9804 -2741)" fill="#f10f0f"/>
      <path id="Path_879" data-name="Path 879" d="M-9665.146,2822.045s2.5-11.648,10.173-12.022c9.8,3.741,10.647,11.47,9.376,14.475s-14.462-2.453-14.462-2.453,15.259.462,5.086-6.011C-9658.673,2813.26-9665.146,2822.045-9665.146,2822.045Z" transform="translate(9804 -2741)" fill="#fc0"/>
      <path id="Path_880" data-name="Path 880" d="M-9686.879,2898c-4.162-5.67-11.1-5.67-6.474,8.2,9.71,8.786,11.56,0,11.56,0V2896.03s7.4,12.947-2.312,19.883c-.463,0-16.185,1.85-15.722-17.913C-9700.52,2893.522-9689.191,2884.469-9686.879,2898Z" transform="translate(9804 -2741)" fill="#ff6709"/>
      <path id="Path_881" data-name="Path 881" d="M-9670.232,2947.356s-8.382-22.262-18.5-26.357c-28.823-4.745-15.259,27.744-13.872,26.357,13.409,15.259,29.016,4.624,37.917,9.248.462,0,9.71,6.474-2.312,9.248,10.636.462,8.786-6.936,8.323-6.011-.462-7.4-21.271-7.861-21.271-7.861s-17.613,1.948-22.657-14.8C-9698.4,2909.309-9670.232,2947.356-9670.232,2947.356Z" transform="translate(9804 -2741)" fill="#fc0"/>
      <path id="Path_882" data-name="Path 882" d="M-9639.252,2887.706c-1.156.809-10.288,13.569-8.785,22.2s13.872,11.56,13.872,11.56-7.745-6.17-9.248-14.8S-9638.1,2886.9-9639.252,2887.706Z" transform="translate(9804 -2741)" fill="#fc0"/>
      <path id="Path_883" data-name="Path 883" d="M-9637.692,2880.073c-1.156.809-14.849,11.657-12.861,22.927,2.114,14.652,20.811,22.156,20.811,22.156a36.374,36.374,0,0,1-14.463-18.11C-9649.052,2892.876-9636.536,2879.264-9637.692,2880.073Z" transform="matrix(0.174, -0.985, 0.985, 0.174, -1029.446, -9797.522)" fill="#fc0"/>
      <path id="Path_884" data-name="Path 884" d="M-9648.2,2888c1.156.809,19.806,6.474,11.944,25.895-13.409,15.722-34.218,7.861-34.218,7.861s24.97,1.85,31.521-15.09C-9636.26,2896.323-9649.36,2887.19-9648.2,2888Z" transform="translate(9838 -2708)" fill="#fc0"/>
      <path id="Path_885" data-name="Path 885" d="M-9632.314,2908.3c-1.156.809-11.441-5.344-16.914,3.694,3.228,10.259,15.369,7.3,15.369,7.3s-8.048-2.911-7.585-6.2S-9631.158,2907.487-9632.314,2908.3Z" transform="translate(4420.905 9297.684) rotate(82)" fill="#fc0"/>
      <path id="Path_886" data-name="Path 886" d="M-9667.458,2890.018c8.785,49.477,33.293,41.616,33.293,41.616s10.635-4.162,11.56-13.872c-7.4-17.109-15.722,1.387-4.161-3.237,0,.925-1.965,4.509-4.624,3.237-6.012-1.85-5.549-6.936-2.774-9.248s17.108-5.086,14.334,16.184c0,.462-8.323,20.346-32.83,9.248C-9663.644,2924.236-9669.308,2908.977-9667.458,2890.018Z" transform="translate(9804 -2741)" fill="#ff6709"/>
      <path id="Path_887" data-name="Path 887" d="M-9643.641,2954.024c-14.107,6.011-8.1,13.678-8.559,14.6,5.087,4.162,8.331-.379,8.559-.841,0,0,2.406.324,3.64-1.3s1.295-5.181,1.295-5.181-1.771,5.527-3.562,2.752c-1.074-1.665-5.125,1.909-5.99,0C-9648.672,2963.279-9647.619,2959.2-9643.641,2954.024Z" transform="translate(9804 -2741)" fill="#ff6709"/>
      <path id="Path_888" data-name="Path 888" d="M-9618.038,2907.427c7.236-.8,5.271,4.841,9.261,4.841s4.328-5.433,8.419-4.841c-2.617,2.985-1.685,9.892-8.419,9.892S-9614.25,2909.11-9618.038,2907.427Z" transform="translate(9804 -2741)" fill="#ff6709"/>
    </g>
  </g>
</svg>
