<svg xmlns="http://www.w3.org/2000/svg" width="112.758" height="170.499" viewBox="0 0 112.758 170.499">
  <g id="Group_2345" data-name="Group 2345" transform="translate(9449.993 -2766.871)">
    <path id="Path_874" data-name="Path 874" d="M-9669.578,2854.988s-8.016-11.316-33.947-2.357c5.658,48.564,33.947,32.533,33.947,32.533s-11.552,3.3-18.389-4.243-9.43-24.989-8.958-25.932C-9680.894,2847.916-9669.578,2854.988-9669.578,2854.988Z" transform="translate(257.068 -40.383)" fill="#fc0"/>
    <path id="Path_875" data-name="Path 875" d="M-9703.525,2854.988s8.016-11.316,33.947-2.357c-5.657,48.564-33.947,32.533-33.947,32.533s11.552,3.3,18.389-4.243,9.43-24.989,8.958-25.932C-9692.209,2847.916-9703.525,2854.988-9703.525,2854.988Z" transform="translate(325.365 -40.383)" fill="#fc0"/>
    <path id="Path_876" data-name="Path 876" d="M-9678.526,2847.215c-1.322-3.426,10.76-10.373,24.9-10.373s27.027,7.658,25.6,10.373-14.761-5.186-25.6-5.186S-9677.2,2850.641-9678.526,2847.215Z" transform="translate(257.594 -41.625)" fill="#fc0"/>
    <path id="Path_877" data-name="Path 877" d="M-9677.459,2847.215c-1.678-2.122,9.692-10.373,23.837-10.373s22.759,8.251,21.688,10.373-12.861-5.186-21.688-5.186C-9664.466,2842.029-9675.781,2849.337-9677.459,2847.215Z" transform="translate(257.594 -51.822)" fill="#ff6709"/>
    <path id="Path_878" data-name="Path 878" d="M-9658.659,2853.951s2.946,10.373,5.658,10.373,5.187-10.373,5.187-10.373,4.243,17.445-5.187,17.445S-9658.659,2853.951-9658.659,2853.951Z" transform="translate(255.937 -45.289)" fill="#f10f0f"/>
    <path id="Path_879" data-name="Path 879" d="M-9663.171,2826.108c-2.134-4.268,8.4-16.085,8.4-16.085s11.751,11.242,10.454,14.307S-9652.145,2819.35-9663.171,2826.108Z" transform="translate(256.822 -43.152)" fill="#fc0"/>
    <path id="Path_880" data-name="Path 880" d="M-9686.624,2898.14c-4.244-5.781-11.315-5.781-6.6,8.364,9.9,8.958,11.787,0,11.787,0v-10.373s7.544,13.2-2.357,20.274c-.472,0-16.5,1.886-16.03-18.265C-9700.532,2893.574-9688.981,2884.344-9686.624,2898.14Z" transform="translate(256.141 -38.563)" fill="#ff6709"/>
    <path id="Path_881" data-name="Path 881" d="M-9669.511,2947.884s-8.546-22.7-18.859-26.875c-29.39-4.838-15.559,28.29-14.145,26.875,13.673,15.559,29.586,4.715,38.662,9.43.471,0,9.9,6.6-2.357,9.43,10.845.471,8.958-7.072,8.486-6.129-.471-7.544-21.688-8.015-21.688-8.015s-17.96,1.986-23.1-15.088C-9698.23,2909.089-9669.511,2947.884-9669.511,2947.884Z" transform="translate(257.001 -33.98)" fill="#fc0"/>
    <path id="Path_882" data-name="Path 882" d="M-9639.076,2887.707c-4.6-3.523-7.552,8.667-6.02,17.463s9.248,18.5,9.248,18.5a112.861,112.861,0,0,1-5.335-18.5C-9642.715,2896.375-9635.9,2888.029-9639.076,2887.707Z" transform="translate(260.155 -37.626)" fill="#fc0"/>
    <path id="Path_883" data-name="Path 883" d="M29.567-4.832C25.858-6.473-4.944.84.2,23.413,2.875,49.846,21.768,50.634,21.768,50.634S6.157,43.9,3.58,26.208C-1.664-2.177,33.276-3.19,29.567-4.832Z" transform="translate(-9417.706 2908.496) rotate(-76)" fill="#fc0"/>
    <path id="Path_884" data-name="Path 884" d="M-9647.767,2888c1.179.825,20.194,6.6,12.179,26.4-13.673,16.031-34.891,8.015-34.891,8.015s25.461,1.886,32.142-15.387C-9635.588,2896.487-9648.945,2887.175-9647.767,2888Z" transform="translate(296.387 -0.971)" fill="#fc0"/>
    <path id="Path_885" data-name="Path 885" d="M17.247,1.326C16.067,2.151,5.58-4.123,0,5.092c3.291,10.461,15.672,7.44,15.672,7.44S7.466,9.564,7.938,6.208,18.426.5,17.247,1.326Z" transform="translate(-9342.702 2850.316) rotate(82)" fill="#fc0"/>
    <path id="Path_886" data-name="Path 886" d="M-9670.1,2886.051c8.893,55.133,36.6,46.4,36.6,46.4s10.844-4.243,11.787-14.145c-7.544-17.445-16.03,1.415-4.243-3.3,0,.943-2,4.6-4.715,3.3-6.13-1.886-5.657-7.073-2.829-9.43s17.445-5.186,14.616,16.5c0,.472-7.461,18.649-33.476,9.43C-9670.1,2924.466-9675.08,2883.561-9670.1,2886.051Z" transform="translate(258.771 -36.58)" fill="#ff6709"/>
    <path id="Path_887" data-name="Path 887" d="M-9643.455,2954.024c-14.385,6.129-8.255,13.947-8.728,14.89,5.188,4.244,8.5-.386,8.728-.858,0,0,2.453.33,3.711-1.321s1.32-5.283,1.32-5.283-1.806,5.635-3.632,2.807c-1.095-1.7-5.226,1.946-6.107,0C-9648.586,2963.461-9647.512,2959.305-9643.455,2954.024Z" transform="translate(258.061 -33.322)" fill="#ff6709"/>
    <path id="Path_888" data-name="Path 888" d="M-9618.038,2907.428c7.379-.819,5.375,4.936,9.442,4.936s4.414-5.54,8.585-4.936c-2.669,3.044-1.718,10.086-8.585,10.086S-9614.176,2909.145-9618.038,2907.428Z" transform="translate(260.749 -39.239)" fill="#ff6709"/>
    <path id="Path_983" data-name="Path 983" d="M.4,1.079S-.59,26.864,5.379,39.849s18.5,12.094,18.5,12.094" transform="translate(-9397.5 2839.5)" fill="none" stroke="#ff914d" stroke-width="2"/>
    <g id="Group_2343" data-name="Group 2343">
      <path id="Path_984" data-name="Path 984" d="M.723-.566S.531.7,4.171,3.457c1.467,1.11,4.573,1.5,6.8,2.874a15.671,15.671,0,0,1,4.312,4.119" transform="translate(-9416.5 2820.5)" fill="none" stroke="#ff914d" stroke-width="1"/>
      <path id="Path_985" data-name="Path 985" d="M0,0A25.636,25.636,0,0,1,5.632,2.343,12.393,12.393,0,0,1,9.56,6.366" transform="translate(-9413.5 2826.5)" fill="none" stroke="#ff914d" stroke-width="1"/>
      <g id="Path_986" data-name="Path 986" transform="translate(-9411 2828)" fill="#ff914d">
        <path d="M 2.499998331069946 4.499995231628418 C 1.397198438644409 4.499995231628418 0.4999984502792358 3.602795362472534 0.4999984502792358 2.499995470046997 C 0.4999984502792358 2.226695537567139 0.4852284491062164 1.994185447692871 0.4721984267234802 1.789045453071594 C 0.4468984305858612 1.390615463256836 0.437518447637558 1.175435423851013 0.5197484493255615 1.01921546459198 C 0.6192153096199036 0.8302392363548279 0.9015510678291321 0.6228758096694946 1.40723443031311 0.3676728308200836 C 1.496423482894897 0.3376248478889465 1.601051092147827 0.3224054276943207 1.718688488006592 0.3224054276943207 C 2.836408376693726 0.3224054276943207 4.499998569488525 1.624885439872742 4.499998569488525 2.499995470046997 C 4.499998569488525 3.602795362472534 3.602798461914063 4.499995231628418 2.499998331069946 4.499995231628418 Z" stroke="none"/>
        <path d="M 1.718688488006592 0.8224053382873535 C 1.660598039627075 0.8224053382873535 1.619725465774536 0.8281717300415039 1.592588901519775 0.8343641757965088 C 1.083848714828491 1.095285177230835 0.9776780605316162 1.229594469070435 0.96347975730896 1.250247240066528 C 0.943549633026123 1.321990251541138 0.9594924449920654 1.573146820068359 0.9711983203887939 1.75734543800354 C 0.9840283393859863 1.959385395050049 0.9999983310699463 2.210835456848145 0.9999983310699463 2.499995470046997 C 0.9999983310699463 3.327095508575439 1.672898530960083 3.999995470046997 2.499998331069946 3.999995470046997 C 3.327098369598389 3.999995470046997 3.999998569488525 3.327095508575439 3.999998569488525 2.499995470046997 C 3.999998569488525 2.341305494308472 3.794378519058228 1.926385402679443 3.242618560791016 1.488555431365967 C 2.740498542785645 1.090115547180176 2.128068447113037 0.8224053382873535 1.718688488006592 0.8224053382873535 M 1.718688726425171 -0.1775937080383301 C 3.065005302429199 -0.1775937080383301 4.999998569488525 1.284036874771118 4.999998569488525 2.499995470046997 C 4.999998569488525 3.880715370178223 3.880708456039429 4.999995231628418 2.499998331069946 4.999995231628418 C 1.119288444519043 4.999995231628418 -1.430511474609375e-06 3.880715370178223 -1.430511474609375e-06 2.499995470046997 C -1.430511474609375e-06 1.119285345077515 -0.4082016944885254 0.7167954444885254 1.209958553314209 -0.09277439117431641 C 1.364473104476929 -0.1507167816162109 1.536275148391724 -0.1775937080383301 1.718688726425171 -0.1775937080383301 Z" stroke="none" fill="#ff914d"/>
      </g>
    </g>
    <g id="Group_2344" data-name="Group 2344" transform="translate(-9391.779 2819.934)">
      <path id="Path_984-2" data-name="Path 984" d="M15.282-.566S15.475.7,11.834,3.457c-1.467,1.11-4.573,1.5-6.8,2.874A15.671,15.671,0,0,0,.721,10.45" transform="translate(-0.721 0.566)" fill="none" stroke="#ff914d" stroke-width="1"/>
      <path id="Path_985-2" data-name="Path 985" d="M9.56,0A25.636,25.636,0,0,0,3.928,2.343,12.393,12.393,0,0,0,0,6.366" transform="translate(2.725 6.566)" fill="none" stroke="#ff914d" stroke-width="1"/>
      <g id="Path_986-2" data-name="Path 986" transform="translate(4.83 8.066)" fill="#ff914d">
        <path d="M 2.454097986221313 4.499995231628418 C 1.351297855377197 4.499995231628418 0.4540978670120239 3.602795362472534 0.4540978670120239 2.499995470046997 C 0.4540978670120239 1.624885439872742 2.117687940597534 0.3224054276943207 3.235407829284668 0.3224054276943207 C 3.353045225143433 0.3224054276943207 3.457672834396362 0.3376248478889465 3.546861886978149 0.3676728308200836 C 4.052545070648193 0.6228758096694946 4.334880828857422 0.8302392363548279 4.434348106384277 1.01921546459198 C 4.51657772064209 1.175435423851013 4.507197856903076 1.390615463256836 4.481897830963135 1.789045453071594 C 4.468867778778076 1.994185447692871 4.454097747802734 2.226695537567139 4.454097747802734 2.499995470046997 C 4.454097747802734 3.602795362472534 3.556897878646851 4.499995231628418 2.454097986221313 4.499995231628418 Z" stroke="none"/>
        <path d="M 3.235217809677124 -0.1775946617126465 L 3.235217809677124 0.8224053382873535 C 2.825867891311646 0.8224053382873535 2.213497877120972 1.090115547180176 1.71141791343689 1.488555431365967 C 1.159698009490967 1.926395416259766 0.9540977478027344 2.341305494308472 0.9540977478027344 2.499995470046997 C 0.9540977478027344 3.327095508575439 1.626997947692871 3.999995470046997 2.454097986221313 3.999995470046997 C 3.281197786331177 3.999995470046997 3.954097747802734 3.327095508575439 3.954097747802734 2.499995470046997 C 3.954097747802734 2.210835456848145 3.970067977905273 1.959385395050049 3.982897758483887 1.75734543800354 C 3.994604110717773 1.573146820068359 4.010546684265137 1.321990251541138 3.990616321563721 1.250247240066528 C 3.976418495178223 1.229594469070435 3.870269298553467 1.095296382904053 3.361529350280762 0.8343753814697266 C 3.334386348724365 0.8281831741333008 3.29348349571228 0.8224120140075684 3.235297918319702 0.8224053382873535 L 3.235217809677124 -0.1775946617126465 M 3.235407590866089 -0.1775937080383301 C 3.417821407318115 -0.1775741577148438 3.589623212814331 -0.1507167816162109 3.744137763977051 -0.09277439117431641 C 5.362298011779785 0.7167954444885254 4.954097747802734 1.119285345077515 4.954097747802734 2.499995470046997 C 4.954097747802734 3.880715370178223 3.834807872772217 4.999995231628418 2.454097986221313 4.999995231628418 C 1.07338809967041 4.999995231628418 -0.04590225219726563 3.880715370178223 -0.04590225219726563 2.499995470046997 C -0.04590225219726563 1.284036874771118 1.889091014862061 -0.1777372360229492 3.235407590866089 -0.1775937080383301 Z" stroke="none" fill="#ff914d"/>
      </g>
    </g>
  </g>
</svg>
