<svg xmlns="http://www.w3.org/2000/svg" xmlns:xlink="http://www.w3.org/1999/xlink" width="1050" height="853" viewBox="0 0 1050 853">
  <defs>
    <linearGradient id="linear-gradient" x1="0.5" y1="0.055" x2="0.474" y2="1.052" gradientUnits="objectBoundingBox">
      <stop offset="0" stop-color="#fba51c"/>
      <stop offset="0.505" stop-color="#d72023"/>
      <stop offset="1" stop-color="#f48d1c"/>
    </linearGradient>
    <linearGradient id="linear-gradient-2" x1="0.5" x2="0.5" y2="1" gradientUnits="objectBoundingBox">
      <stop offset="0" stop-color="#a02b32"/>
      <stop offset="1" stop-color="#aa232a"/>
    </linearGradient>
    <linearGradient id="linear-gradient-3" x1="0.5" x2="0.5" y2="1" gradientUnits="objectBoundingBox">
      <stop offset="0" stop-color="#b42f35"/>
      <stop offset="1" stop-color="#a18a17"/>
    </linearGradient>
    <linearGradient id="linear-gradient-4" y1="1" y2="0" xlink:href="#linear-gradient-2"/>
    <linearGradient id="linear-gradient-5" y1="1" y2="0" xlink:href="#linear-gradient-3"/>
    <clipPath id="clip-Artboard_7">
      <rect width="1050" height="853"/>
    </clipPath>
  </defs>
  <g id="Artboard_7" data-name="Artboard – 7" clip-path="url(#clip-Artboard_7)">
    <rect width="1050" height="853" fill="#fff"/>
    <path id="Path_643" data-name="Path 643" d="M-145.784-181.07C-97.2-107.183-56.507-112.9-54.65-109.2c-1.856.766,31.623.766,59.537,19.764C27.557-61.588,18.647-31.242,36.03,2.2A78.577,78.577,0,0,0,68.371,34.537C81.063,46.829,40.821,6.987,43.816-7.387,48.607-3.793,57.591,9.382,68.371,8.784c9.295,6.091-29.945-23.357-19.782-43.72C54-23.557,60.021-14.984,68.371-11.579c-8.385-10.78-20.962-35.335-5.989-46.116,1.2-4.192-.642,26.267,10.78,29.346-2.994-16.769,1.263-51.426,9.582-47.913-1.2,14.973,5.39,32,5.39,32.341,0-25.154,19.006-42.681,19.165-42.522-2.4,11.379-9.247,33.714,0,34.736,2.4-26.352,20.784-34.559,20.962-34.736C100.113-49.909,160-25.354,155.212-3.793c-67.077-32.94-43.121,31.742-10.78,33.539,53.9,6.588,38.33-125.172,88.04-138.947,28.747-6.588,49.57-1.816,74.264-19.764,31.4-22.824,38.881-58.813,44.919-52.1,0,0,30.544,98.82-60.49,152.721,8.385,3.593,43.72-12.577,43.72-12.577s23.357,58.693-98.82,91.031c0,.6.6,3.719,29.945,9.11,1.2,0,5.989,38.207-132.957,51.982-20.962,16.769-12.577,45.517-12.577,45.517s34.736,53.9,12.577,89.237c-5.989,1.8-4.614-19.372-5.39-16.17-12.827,38-34.138,65.281-42.522,60.49-19.165-28.149,6.588-36.534,19.165-82.649,0-1.2-40.127,71.869-34.461,29.945-3.271-4.791,12.9-35.934,12.9-35.934s-11.379,19.764-12.9,17.5c-13.452,8.849-11.64-16.447-8.1-36.437s14.17-43.523,14.17-43.523,6.629-12.221-27.328-31.377c-29.352-6.073-96.154-6.073-103.24-48.583,21.255,2.024,34.413-9.11,34.413-9.11s-103.24-6.073-107.8-86.639c23.789,13.764,52.129,9.716,52.129,9.716S-176.149-96.049-145.784-181.07Z" transform="translate(420.055 244.124)" fill="url(#linear-gradient)"/>
    <g id="Group_2213" data-name="Group 2213" transform="translate(14011.483 -6019.153)">
      <path id="Path_644" data-name="Path 644" d="M73.753-13.372c33.8,0,69.943-18.475,95.017-34.311,0,3.1-36.951,38.271-95.017,42.889C51.967-5.516-3.871-19.016,41.421-56.261,17.007-25.909,39.951-13.372,73.753-13.372Z" transform="translate(-13958.359 6507.215)" fill="#a02b32"/>
      <path id="Path_645" data-name="Path 645" d="M52.543,42.889C99.9,45.822,128.935,15.836,154.009,0c0,3.1-37.611,53.08-101.465,51.467C30.758,50.745-22.828,29.326,10.824,0-1.713,22.728,18.741,42.889,52.543,42.889Z" transform="translate(-13603.249 6515.911) rotate(180)" fill="url(#linear-gradient-2)"/>
      <path id="Path_646" data-name="Path 646" d="M59.754-40.4C126.4-46.341,216.136-108.366,274.2-112.325c50.147-3.959,97.656,16.5,110.193,33.652-52.787-31.012-129.328-36.951-224.345,22.435C128.377-46.341,110.467-37.714,52.4-33.1c-21.786-.722-90.962-24.463-65.229-66.692C-21.406-65.476,7.627-43.7,59.754-40.4Z" transform="translate(-13947 6558)" fill="url(#linear-gradient-3)"/>
    </g>
    <g id="Group_2214" data-name="Group 2214" transform="matrix(-1, 0.017, -0.017, -1, 994.543, 489.228)">
      <path id="Path_644-2" data-name="Path 644" d="M49.565,8.578c33.8,0,69.943,18.475,95.017,34.312,0-3.1-36.951-38.271-95.017-42.89C27.78.722-28.059,14.222,17.234,51.468-7.181,21.115,15.763,8.578,49.565,8.578Z" transform="translate(31.312 22.483)" fill="#a02b32"/>
      <path id="Path_645-2" data-name="Path 645" d="M52.543,8.616C99.9,5.684,128.935,35.67,154.009,51.506c0-3.1-37.611-53.081-101.465-51.468C30.758.76-22.828,22.18,10.824,51.506-1.713,28.778,18.741,8.616,52.543,8.616Z" transform="translate(362.234 60.499) rotate(180)" fill="url(#linear-gradient-4)"/>
      <path id="Path_646-2" data-name="Path 646" d="M78.238,7.307C144.882,13.246,234.62,75.271,292.686,79.23c50.147,3.959,97.656-16.5,110.193-33.652C350.091,76.59,273.55,82.529,178.534,23.143,146.861,13.246,128.951,4.619,70.885,0,49.1.722-20.077,24.463,5.656,66.693-2.922,32.381,26.111,10.606,78.238,7.307Z" transform="translate(0 0)" fill="url(#linear-gradient-5)"/>
    </g>
    <text id="IDEAPELL" transform="translate(192 667)" fill="#a71e0d" font-size="149" font-family="SegoeUI-Bold, Segoe UI" font-weight="700"><tspan x="0" y="0">IDEAPELL</tspan></text>
    <text id="Business_Description_" data-name="Business Description " transform="translate(387 718)" fill="rgba(0,5,7,0.99)" font-size="33" font-family="SegoeUI, Segoe UI"><tspan x="0" y="0">Business Description </tspan></text>
  </g>
</svg>
